<svg id="visual" viewBox="0 0 900 600" width="900" height="600" xmlns="http://www.w3.org/2000/svg" xmlns:xlink="http://www.w3.org/1999/xlink" version="1.1"><rect width="900" height="600" fill="#FFDCAE"></rect><g><g transform="translate(556 254)"><path d="M0 -106.2L92 -53.1L92 53.1L0 106.2L-92 53.1L-92 -53.1Z" fill="#76BA99"></path></g><g transform="translate(261 467)"><path d="M0 -87L75.3 -43.5L75.3 43.5L0 87L-75.3 43.5L-75.3 -43.5Z" fill="#76BA99"></path></g><g transform="translate(611 493)"><path d="M0 -90L77.9 -45L77.9 45L0 90L-77.9 45L-77.9 -45Z" fill="#76BA99"></path></g><g transform="translate(174 196)"><path d="M0 -93L80.5 -46.5L80.5 46.5L0 93L-80.5 46.5L-80.5 -46.5Z" fill="#76BA99"></path></g><g transform="translate(764 136)"><path d="M0 -80L69.3 -40L69.3 40L0 80L-69.3 40L-69.3 -40Z" fill="#76BA99"></path></g></g></svg>