<svg id="visual" viewBox="0 0 900 600" width="900" height="600" xmlns="http://www.w3.org/2000/svg" xmlns:xlink="http://www.w3.org/1999/xlink" version="1.1"><path d="M0 31L39 31L78 37L117 37L157 37L196 37L235 37L274 37L313 37L352 31L391 37L430 31L470 37L509 37L548 37L587 37L626 37L665 37L704 31L743 31L783 37L822 31L861 31L900 37L900 0L861 0L822 0L783 0L743 0L704 0L665 0L626 0L587 0L548 0L509 0L470 0L430 0L391 0L352 0L313 0L274 0L235 0L196 0L157 0L117 0L78 0L39 0L0 0Z" fill="#ffdcae"></path><path d="M0 109L39 103L78 109L117 115L157 115L196 109L235 109L274 115L313 109L352 103L391 109L430 103L470 109L509 109L548 115L587 115L626 109L665 109L704 103L743 103L783 109L822 103L861 109L900 115L900 35L861 29L822 29L783 35L743 29L704 29L665 35L626 35L587 35L548 35L509 35L470 35L430 29L391 35L352 29L313 35L274 35L235 35L196 35L157 35L117 35L78 35L39 29L0 29Z" fill="#dcd49e"></path><path d="M0 139L39 133L78 139L117 145L157 145L196 139L235 139L274 145L313 139L352 133L391 139L430 133L470 139L509 139L548 145L587 145L626 139L665 139L704 133L743 133L783 139L822 133L861 139L900 145L900 113L861 107L822 101L783 107L743 101L704 101L665 107L626 107L587 113L548 113L509 107L470 107L430 101L391 107L352 101L313 107L274 113L235 107L196 107L157 113L117 113L78 107L39 101L0 107Z" fill="#b5cb96"></path><path d="M0 187L39 181L78 187L117 187L157 187L196 181L235 187L274 193L313 187L352 181L391 181L430 181L470 181L509 181L548 193L587 187L626 187L665 187L704 181L743 181L783 181L822 181L861 187L900 187L900 143L861 137L822 131L783 137L743 131L704 131L665 137L626 137L587 143L548 143L509 137L470 137L430 131L391 137L352 131L313 137L274 143L235 137L196 137L157 143L117 143L78 137L39 131L0 137Z" fill="#8ec196"></path><path d="M0 241L39 241L78 247L117 247L157 247L196 235L235 241L274 247L313 241L352 241L391 241L430 241L470 241L509 235L548 253L587 241L626 247L665 241L704 241L743 241L783 241L822 241L861 241L900 247L900 185L861 185L822 179L783 179L743 179L704 179L665 185L626 185L587 185L548 191L509 179L470 179L430 179L391 179L352 179L313 185L274 191L235 185L196 179L157 185L117 185L78 185L39 179L0 185Z" fill="#76ba99"></path><path d="M0 277L39 277L78 283L117 283L157 283L196 271L235 277L274 283L313 277L352 277L391 277L430 277L470 277L509 271L548 289L587 277L626 283L665 277L704 277L743 277L783 277L822 277L861 277L900 283L900 245L861 239L822 239L783 239L743 239L704 239L665 239L626 245L587 239L548 251L509 233L470 239L430 239L391 239L352 239L313 239L274 245L235 239L196 233L157 245L117 245L78 245L39 239L0 239Z" fill="#76ba99"></path><path d="M0 319L39 319L78 325L117 325L157 325L196 313L235 319L274 325L313 319L352 319L391 319L430 319L470 319L509 313L548 331L587 319L626 325L665 319L704 319L743 319L783 319L822 319L861 319L900 325L900 281L861 275L822 275L783 275L743 275L704 275L665 275L626 281L587 275L548 287L509 269L470 275L430 275L391 275L352 275L313 275L274 281L235 275L196 269L157 281L117 281L78 281L39 275L0 275Z" fill="#8ec196"></path><path d="M0 349L39 349L78 355L117 355L157 355L196 343L235 349L274 355L313 349L352 349L391 349L430 349L470 349L509 343L548 361L587 349L626 355L665 349L704 349L743 349L783 349L822 349L861 349L900 355L900 323L861 317L822 317L783 317L743 317L704 317L665 317L626 323L587 317L548 329L509 311L470 317L430 317L391 317L352 317L313 317L274 323L235 317L196 311L157 323L117 323L78 323L39 317L0 317Z" fill="#b5cb96"></path><path d="M0 457L39 457L78 463L117 481L157 469L196 469L235 481L274 481L313 457L352 481L391 475L430 463L470 481L509 457L548 475L587 457L626 481L665 475L704 475L743 463L783 457L822 469L861 475L900 481L900 353L861 347L822 347L783 347L743 347L704 347L665 347L626 353L587 347L548 359L509 341L470 347L430 347L391 347L352 347L313 347L274 353L235 347L196 341L157 353L117 353L78 353L39 347L0 347Z" fill="#dcd49e"></path><path d="M0 601L39 601L78 601L117 601L157 601L196 601L235 601L274 601L313 601L352 601L391 601L430 601L470 601L509 601L548 601L587 601L626 601L665 601L704 601L743 601L783 601L822 601L861 601L900 601L900 479L861 473L822 467L783 455L743 461L704 473L665 473L626 479L587 455L548 473L509 455L470 479L430 461L391 473L352 479L313 455L274 479L235 479L196 467L157 467L117 479L78 461L39 455L0 455Z" fill="#ffdcae"></path></svg>